Coordinates
version=1
nRows=16
nColumns=40
inDegrees=yes

Units are S.I. units (second, meters, Newtons, ...)
Angles are in degrees.

endheader
time	pelvis_tilt	pelvis_list	pelvis_rotation	pelvis_tx	pelvis_ty	pelvis_tz	hip_flexion_r	hip_adduction_r	hip_rotation_r	knee_angle_r	knee_angle_r_beta	ankle_angle_r	subtalar_angle_r	mtp_angle_r	hip_flexion_l	hip_adduction_l	hip_rotation_l	knee_angle_l	knee_angle_l_beta	ankle_angle_l	subtalar_angle_l	mtp_angle_l	lumbar_extension	lumbar_bending	lumbar_rotation	arm_flex_r	arm_add_r	arm_rot_r	elbow_flex_r	pro_sup_r	wrist_flex_r	wrist_dev_r	arm_flex_l	arm_add_l	arm_rot_l	elbow_flex_l	pro_sup_l	wrist_flex_l	wrist_dev_l
     54.40714286	     -5.12362992	     -4.74353431	     -1.67117363	      1.05123224	      0.93532599	      0.44998529	     42.65959708	     -3.33982206	     -3.91381274	     61.46069457	     61.46069457	     -0.17533528	    -15.71397528	      1.09219695	     11.80369878	     -4.67776935	     -8.84649310	     16.79010681	     16.79010681	     12.16218208	     -9.20548834	     -2.94888387	    -12.76951876	      7.17003605	      2.29994493	     -4.02147536	    -13.62965517	    -10.74092621	     28.50341572	     47.10707103	      0.00000000	      0.00000000	     24.59625354	    -19.86101512	     10.02873315	     72.81550830	     46.35789359	      0.00000000	      0.00000000
     54.41928571	     -5.20821726	     -4.76998856	     -1.79596112	      1.05047216	      0.93544800	      0.45027496	     42.80681776	     -3.28860908	     -4.29994015	     58.18498740	     58.18498740	     -0.12261310	    -14.99127056	      1.23410662	     11.02590772	     -4.68161182	     -9.08568773	     16.06830465	     16.06830465	     12.29172614	     -8.80895413	     -3.17151500	    -12.79726052	      7.28250960	      2.33065181	     -5.54885953	    -13.95598090	    -10.91161875	     26.91226253	     47.16889780	      0.00000000	      0.00000000	     25.75453818	    -20.22597424	      9.92414812	     74.74966591	     46.41769855	      0.00000000	      0.00000000
     54.43142857	     -5.36452636	     -4.57569740	     -1.89900429	      1.04970669	      0.93511999	      0.45060429	     42.87273691	     -3.40397768	     -4.54653363	     54.59547584	     54.59547584	     -0.27336841	    -14.24427816	      0.65489801	     10.36612062	     -4.47904990	     -9.48296618	     15.39111798	     15.39111798	     12.22033379	     -8.22605927	     -4.08960795	    -12.81007596	      7.05900412	      2.06272990	     -6.36336107	    -14.07750046	    -11.42551895	     24.36750723	     47.29819033	      0.00000000	      0.00000000	     26.41703058	    -21.49025356	     10.15675230	     78.15015816	     46.51042665	      0.00000000	      0.00000000
     54.44357143	     -5.50083264	     -4.63590683	     -1.95539258	      1.04925721	      0.93477220	      0.45099460	     42.61441895	     -3.30182015	     -5.03124820	     50.60768206	     50.60768206	     -0.24675002	    -13.00842283	      0.89583392	      9.73940182	     -4.52657986	     -9.61759572	     14.87764009	     14.87764009	     12.47268547	     -8.00263692	     -4.26120006	    -12.63944503	      7.22003064	      1.80395640	     -7.94224332	    -14.36321851	    -11.54008932	     23.51102196	     47.32892969	      0.00000000	      0.00000000	     27.60115434	    -21.83350809	      9.76422469	     79.36308978	     46.57210039	      0.00000000	      0.00000000
     54.45571429	     -5.59149545	     -4.58199054	     -1.95323511	      1.04897098	      0.93430717	      0.45135997	     42.04980030	     -3.32608733	     -5.56648037	     46.28958742	     46.28958742	     -0.16924343	    -11.46101225	      1.06175625	      9.02406615	     -4.44597227	     -9.80888285	     14.28504165	     14.28504165	     12.69601752	     -7.56463508	     -4.53890027	    -12.60031228	      7.22579493	      1.82485180	     -9.54746663	    -14.58219907	    -11.64305676	     22.69098106	     47.35671164	      0.00000000	      0.00000000	     28.67913555	    -22.03662852	      9.51613089	     81.09189004	     46.63375149	      0.00000000	      0.00000000
     54.46785714	     -5.54844736	     -4.45263535	     -1.92198544	      1.04903423	      0.93380875	      0.45172795	     41.10345581	     -3.43342560	     -6.23040452	     41.74425065	     41.74425065	     -0.11231888	     -9.58320404	      1.13324638	      8.15217692	     -4.28876481	    -10.05787268	     13.71268475	     13.71268475	     12.91874550	     -6.99078697	     -4.99268047	    -12.69584110	      7.11460631	      1.85570529	    -11.20372929	    -14.78791365	    -11.77935028	     22.01658099	     47.37940266	      0.00000000	      0.00000000	     29.52428923	    -22.22265489	      9.45259218	     83.30953268	     46.69492705	      0.00000000	      0.00000000
     54.48000000	     -5.49167169	     -4.18944578	     -1.89851785	      1.04935566	      0.93301637	      0.45223620	     39.97460897	     -3.62549021	     -6.91610085	     37.13182047	     37.13182047	     -0.11227480	     -7.41404429	      1.01894201	      7.26003910	     -4.01432071	    -10.49498145	     13.15457787	     13.15457787	     13.10011716	     -6.29895961	     -5.77853958	    -12.76933512	      6.83739270	      1.74277340	    -12.80144109	    -14.84481445	    -12.00500910	     21.83086153	     47.38331180	      0.00000000	      0.00000000	     30.17525032	    -22.86912876	      9.46017502	     86.17926058	     46.77708051	      0.00000000	      0.00000000
     54.49214286	     -5.69097002	     -4.02833691	     -1.79681576	      1.04971916	      0.93175603	      0.45290435	     38.87480479	     -3.55466460	     -7.49004859	     32.39101295	     32.39101295	     -0.08752458	     -5.85717066	      1.72474755	      6.81151303	     -3.85197828	    -10.48868322	     12.89312912	     12.89312912	     13.37947622	     -6.06336682	     -6.12836648	    -12.48674267	      6.75264059	      1.42062095	    -14.13236299	    -14.90030294	    -12.09357116	     21.58191840	     47.38511507	      0.00000000	      0.00000000	     30.92322712	    -23.28066720	      9.26501953	     87.29144543	     46.82336924	      0.00000000	      0.00000000
     54.50428571	     -5.52327478	     -3.77990116	     -1.69458969	      1.05070766	      0.93073728	      0.45370159	     37.33189823	     -3.69308749	     -8.57018830	     28.08005882	     28.08005882	      0.25461618	     -3.31512205	      2.81601739	      5.81304159	     -3.60166970	    -10.72363146	     12.42929004	     12.42929004	     13.61452027	     -5.47851865	     -6.89806957	    -12.62995253	      6.42429224	      1.25194323	    -15.90678242	    -14.97800907	    -12.30657349	     22.26676733	     47.33726628	      0.00000000	      0.00000000	     31.27167381	    -23.81820483	      9.30365858	     89.88276930	     46.91242881	      0.00000000	      0.00000000
     54.51642857	     -5.44294513	     -3.55430583	     -1.58962711	      1.05181610	      0.92943976	      0.45469414	     35.90364780	     -3.68678740	     -9.48802315	     24.29596685	     24.29596685	      0.97817255	     -1.22421325	      5.43421968	      5.01276247	     -3.38652654	    -10.73258323	     12.17961645	     12.17961645	     13.91161549	     -5.29289479	     -7.47644592	    -12.61056739	      6.19299334	      1.07584030	    -17.68667440	    -15.01109231	    -12.34088518	     23.44027004	     47.23416089	      0.00000000	      0.00000000	     31.67203581	    -24.25846625	      9.23695737	     91.61486349	     47.02861020	      0.00000000	      0.00000000
     54.52857143	     -5.43451368	     -3.34034810	     -1.49360922	      1.05310514	      0.92792073	      0.45598741	     34.51631660	     -3.54561548	    -10.21702167	     20.92425610	     20.92425610	      1.10078365	      0.09228142	      6.52468723	      4.35636605	     -3.21117218	    -10.66506388	     12.08879966	     12.08879966	     14.36763785	     -5.23316303	     -7.66988952	    -12.40241179	      5.93231286	      1.01611615	    -18.86245029	    -14.92347629	    -12.32253134	     23.28245094	     47.22107375	      0.00000000	      0.00000000	     32.23823818	    -24.33338277	      9.14717208	     92.42743304	     47.06235696	      0.00000000	      0.00000000
     54.54071429	     -5.30756505	     -3.16196946	     -1.41288844	      1.05468756	      0.92651724	      0.45742097	     33.12928686	     -3.42394074	    -11.18573907	     18.40279945	     18.40279945	      1.41015692	      1.54248448	      7.70309203	      3.52566287	     -3.07925660	    -10.56819731	     11.96108761	     11.96108761	     14.87186892	     -5.12497982	     -7.78927637	    -12.35175403	      5.71786974	      1.05902567	    -20.08765143	    -14.83257033	    -12.33197499	     23.31124168	     47.20017259	      0.00000000	      0.00000000	     32.61815970	    -24.37212488	      9.20745730	     93.48061656	     47.09540801	      0.00000000	      0.00000000
     54.55285714	     -5.27908187	     -2.97264038	     -1.35610268	      1.05632804	      0.92501485	      0.45900279	     32.16326846	     -3.39537074	    -12.20960677	     17.10342060	     17.10342060	      2.86097995	      3.03021980	     11.49399266	      2.86759603	     -2.96557941	    -10.56724529	     11.99378082	     11.99378082	     15.70898188	     -4.84609408	     -7.11375418	    -12.20528547	      5.52800914	      1.25692424	    -21.89757320	    -14.75416698	    -11.97856294	     25.33603505	     46.99610722	      0.00000000	      0.00000000	     32.82920586	    -24.47003098	      9.44904808	     94.69611637	     47.24643064	      0.00000000	      0.00000000
     54.56500000	     -5.29879453	     -2.88597309	     -1.31432812	      1.05806816	      0.92342872	      0.46093824	     31.15667901	     -3.13620842	    -12.84721458	     16.02692469	     16.02692469	      2.99038284	      3.49108649	     11.60216515	      2.30594198	     -2.98934051	    -10.42376942	     12.10455926	     12.10455926	     16.23353282	     -4.97178722	     -7.14525592	    -11.94411233	      5.38657722	      1.31625325	    -22.55144106	    -14.53977540	    -11.92917589	     25.17204439	     46.98776740	      0.00000000	      0.00000000	     32.98660057	    -24.50025361	      9.42903771	     95.22606887	     47.26904961	      0.00000000	      0.00000000
     54.57714286	     -5.29036676	     -2.89393622	     -1.28465278	      1.05992841	      0.92203040	      0.46304911	     30.17565009	     -2.83348559	    -13.60468987	     15.48453079	     15.48453079	      2.98557727	      4.00717269	     11.18223980	      1.70034118	     -3.12432070	    -10.24684240	     12.22016933	     12.22016933	     16.88429338	     -5.05115363	     -6.76778070	    -11.74937648	      5.33910118	      1.48233952	    -23.12452723	    -14.37456549	    -11.87812199	     25.20100178	     46.96823566	      0.00000000	      0.00000000	     32.90388509	    -24.39107294	      9.51319264	     96.01910240	     47.29720905	      0.00000000	      0.00000000
     54.58928571	     -5.30459570	     -2.83078376	     -1.24728202	      1.06191961	      0.92064918	      0.46531927	     29.27811889	     -2.59850622	    -14.09874385	     15.29466519	     15.29466519	      2.12371454	      4.08054022	      7.80093951	      1.24913692	     -3.23629434	    -10.17807624	     12.68251549	     12.68251549	     18.36961821	     -4.66286059	     -4.44939458	    -11.51729258	      5.23737704	      1.39223241	    -23.52222800	    -14.23829891	    -11.64934144	     25.82921514	     46.88413208	      0.00000000	      0.00000000	     32.39712304	    -24.58269661	      9.32059378	     96.92013961	     47.40678233	      0.00000000	      0.00000000
